<?xml version="1.0" encoding="UTF-8" standalone="no"?>
<svg width="229px" height="28px" viewBox="0 0 229 28" version="1.1" xmlns="http://www.w3.org/2000/svg" xmlns:xlink="http://www.w3.org/1999/xlink" xmlns:sketch="http://www.bohemiancoding.com/sketch/ns">
    <title>MFP Logo</title>
    <g id="Page-1" stroke="none" stroke-width="1" fill="none" fill-rule="evenodd" sketch:type="MSPage">
        <g id="Website-Header" sketch:type="MSArtboardGroup" fill="#0070BF">
            <g id="MFP-Logo-Copy" sketch:type="MSLayerGroup">
                <path d="M21.3253989,15.0201188 L21.2399873,15.0210678 L21.2361912,15.0210678 L21.1507795,15.0201188 C18.4128606,15.0201188 16.1807686,14.4061037 14.5446604,13.4675242 C16.1817176,12.5270467 18.4147586,11.9111336 21.1555246,11.9111336 L21.2418853,11.9101845 L21.2456814,11.9101845 L21.331093,11.9111336 C24.069961,11.9111336 26.3011039,12.5260977 27.9372121,13.4637281 C26.3001549,14.4042056 24.0671139,15.0201188 21.3253989,15.0201188 L21.3253989,15.0201188 Z M34.531943,13.4646771 C39.155562,11.6017535 42.1734415,8.80404637 42.3376217,5.70075526 C42.3376217,5.70075526 41.1181327,4.83809727 37.1778071,3.51136915 C33.7157869,2.34502518 31.077515,2.07740191 31.077515,2.07740191 L31.0889032,8.99385011 C31.0889032,10.0263824 30.6362213,11.0816912 29.7811554,12.0155256 C27.1656599,11.4366242 24.275898,11.1120598 21.2447323,11.1111108 L21.2428343,11.1111108 C18.2078725,11.1120598 15.3143146,11.4375732 12.695972,12.0174236 C11.8409062,11.0835893 11.3863262,10.0273315 11.3863262,8.99385011 L11.3986635,2.07740191 C11.3986635,2.07740191 8.76039151,2.34502518 5.29837133,3.51136915 C1.35804574,4.83809727 0.139505747,5.70075526 0.139505747,5.70075526 C0.302736961,8.80499539 3.32346345,11.6036515 7.94992955,13.4665752 C3.3263105,15.3294989 0.308431074,18.127206 0.144250841,21.2304971 C0.144250841,21.2304971 1.36373985,22.092206 5.30406545,23.4198832 C8.76608562,24.5862271 11.4043576,24.8538504 11.4043576,24.8538504 L11.3929693,17.9374022 C11.3929693,16.9048699 11.8456513,15.8495611 12.6997681,14.9157267 C15.3162126,15.4955771 18.2059745,15.8191925 21.2371402,15.8191925 L21.2390382,15.8191925 C24.274,15.8191925 27.167558,15.4946281 29.7859005,14.9138287 C30.6409664,15.8476631 31.0945973,16.9039209 31.0945973,17.9374022 L31.0832091,24.8538504 C31.0832091,24.8538504 33.721481,24.5862271 37.1835012,23.4198832 C41.1238268,22.092206 42.3423668,21.2304971 42.3423668,21.2304971 C42.1791356,18.1262569 39.1584091,15.3276008 34.531943,13.4646771 L34.531943,13.4646771 Z" id="Fill-16" sketch:type="MSShapeGroup"></path>
                <path d="M72.5942355,5.69885722 C71.652809,5.69885722 70.790151,5.9057433 70.0062616,6.31761741 C69.2204741,6.72949152 68.4754944,7.40614184 67.7694245,8.34661936 C67.4761777,7.48396137 66.9750959,6.82818946 66.269026,6.37645656 C65.5629561,5.92472367 64.6509491,5.69885722 63.5330051,5.69885722 C62.6902765,5.69885722 61.8855086,5.9057433 61.1205996,6.31761741 C60.3566395,6.72949152 59.6894794,7.36628306 59.1200682,8.22894104 L59.1200682,6.16957049 L55.1190054,6.16957049 L55.1190054,21.5275399 L59.2377465,21.5275399 L59.2377465,12.289792 C59.2377465,11.8390081 59.3212601,11.4223889 59.4882874,11.0389854 C59.6543657,10.6565308 59.8754871,10.3281704 60.1497535,10.053904 C60.482859,9.7198494 60.8216587,9.48449277 61.1652035,9.34783408 C61.5087482,9.21022637 61.8855086,9.14189702 62.2983318,9.14189702 C62.5517198,9.14189702 62.7975156,9.18080679 63.0328722,9.25957534 C63.2682289,9.33739487 63.4694208,9.4759516 63.6364481,9.67144945 C63.8025264,9.86789632 63.93444,10.1374176 64.0340869,10.4800134 C64.1308869,10.8235581 64.1802358,11.2695969 64.1802358,11.8181297 L64.1802358,21.5275399 L68.2989769,21.5275399 L68.2989769,12.1132745 C68.2989769,11.7213298 68.3824906,11.3474165 68.5485688,10.9943815 C68.7155961,10.6413465 68.9367175,10.3281704 69.2119329,10.053904 C69.5440895,9.7198494 69.8828891,9.48449277 70.2264339,9.34783408 C70.5690296,9.21022637 70.9467391,9.14189702 71.3586132,9.14189702 C71.6138992,9.14189702 71.858746,9.18080679 72.0941027,9.25957534 C72.3294593,9.33739487 72.5306513,9.4759516 72.6976786,9.67144945 C72.8637568,9.86789632 72.9966194,10.1374176 73.0943684,10.4800134 C73.1921173,10.8235581 73.2414663,11.2695969 73.2414663,11.8181297 L73.2414663,21.5275399 L77.3611564,21.5275399 L77.3611564,11.2601067 C77.3611564,9.2984851 76.9635176,7.8816002 76.1691889,7.00850301 C75.3748603,6.13635484 74.1828928,5.69885722 72.5942355,5.69885722" id="Fill-17" sketch:type="MSShapeGroup"></path>
                <path d="M86.8627315,16.2614352 L83.2735428,6.16957049 L78.50852,6.16957049 L84.8916197,20.8508896 L84.4209064,22.1444021 C84.1864988,22.8115622 83.9017932,23.2784794 83.5686876,23.5423066 C83.234633,23.8070828 82.7933394,23.9399454 82.2438575,23.9399454 C81.656415,23.9399454 81.0775136,23.8611769 80.5090514,23.7045888 L79.831452,26.763276 C80.3809338,26.9407425 80.9057412,27.0631659 81.405874,27.1314953 C81.9060069,27.1998246 82.4108848,27.2349383 82.9214569,27.2349383 C83.7442561,27.2349383 84.4360907,27.1267502 84.9960117,26.9113229 C85.5540347,26.6949467 86.0342382,26.3665862 86.4366221,25.9252925 C86.838057,25.4839988 87.1967861,24.935466 87.5109113,24.2777961 C87.8240874,23.6210751 88.158142,22.850472 88.5111769,21.9688336 L94.7177592,6.16957049 L90.2165635,6.16957049 L86.8627315,16.2614352" id="Fill-18" sketch:type="MSShapeGroup"></path>
                <path d="M108.07235,6.16957049 L112.191091,6.16957049 L112.191091,21.5275399 L108.07235,21.5275399 L108.07235,6.16957049 Z" id="Fill-19" sketch:type="MSShapeGroup"></path>
                <path d="M108.013511,0.521960278 L112.250879,0.521960278 L112.250879,4.22787825 L108.013511,4.22787825 L108.013511,0.521960278 Z" id="Fill-20" sketch:type="MSShapeGroup"></path>
                <path d="M103.247539,0.286603644 C102.48263,0.286603644 101.778458,0.390046681 101.129329,0.595034717 C100.482099,0.800971773 99.9193306,1.11984205 99.4391271,1.55164555 C98.9570256,1.98250004 98.5802652,2.54147205 98.3059988,3.22856158 C98.0298344,3.91470209 97.8931757,4.72896012 97.8931757,5.67038666 L97.8931757,6.16957049 L95.4817192,6.16957049 L95.4817192,9.37630464 L97.8931757,9.37630464 L97.8931757,21.5275399 L102.013815,21.5275399 L102.013815,9.37630464 L105.572635,9.37630464 L105.572635,6.16957049 L102.013815,6.16957049 L102.013815,5.58212792 C102.013815,4.79728947 102.228293,4.25350176 102.660097,3.94886676 C103.090002,3.64518078 103.572104,3.49333779 104.100707,3.49333779 C104.669169,3.49333779 105.268,3.57115732 105.89625,3.72869442 L106.454273,0.727897334 C105.885811,0.550430839 105.331584,0.432752522 104.791593,0.374862382 C104.25255,0.315074204 103.739131,0.286603644 103.247539,0.286603644" id="Fill-21" sketch:type="MSShapeGroup"></path>
                <path d="M123.092469,18.4821389 C122.806814,18.5115585 122.528752,18.5267428 122.252587,18.5267428 C121.723984,18.5267428 121.29218,18.38439 120.959075,18.1006334 C120.62502,17.8159278 120.457993,17.2721401 120.457993,16.4673723 L120.457993,9.37630464 L123.989292,9.37630464 L123.989292,6.16957049 L120.457993,6.16957049 L120.457993,2.08119798 L116.339252,2.08119798 L116.339252,6.16957049 L113.927795,6.16957049 L113.927795,9.37630464 L116.339252,9.37630464 L116.339252,16.555631 C116.339252,18.4584135 116.74733,19.8107651 117.560639,20.615533 C118.374897,21.4203008 119.623806,21.8207867 121.313059,21.8207867 C121.801804,21.8207867 122.317121,21.786622 122.857112,21.7182927 C123.396155,21.6499633 123.950382,21.5275399 124.519793,21.3500734 L123.929503,18.3208058 C123.655237,18.3986253 123.375276,18.4536684 123.092469,18.4821389" id="Fill-22" sketch:type="MSShapeGroup"></path>
                <path d="M134.845116,5.69885722 C133.9426,5.69885722 133.075196,5.9057433 132.241009,6.31761741 C131.406822,6.72949152 130.686516,7.38621245 130.078195,8.28872922 L130.078195,6.16957049 L126.078082,6.16957049 L126.078082,21.5275399 L130.196823,21.5275399 L130.196823,12.289792 C130.196823,11.8390081 130.289827,11.4223889 130.476783,11.0389854 C130.661842,10.6565308 130.891504,10.3281704 131.167669,10.053904 C131.499825,9.75875917 131.859504,9.53384174 132.241009,9.37630464 C132.623464,9.21971655 133.078993,9.14189702 133.609494,9.14189702 C134.294686,9.14189702 134.845116,9.33739487 135.25699,9.72933959 C135.668865,10.1222333 135.873853,10.8586718 135.873853,11.9367571 L135.873853,21.5275399 L139.992594,21.5275399 L139.992594,11.377785 C139.992594,9.41616342 139.572178,7.97934913 138.728501,7.06829119 C137.884823,6.15628423 136.589413,5.69885722 134.845116,5.69885722" id="Fill-23" sketch:type="MSShapeGroup"></path>
                <path d="M146.670838,12.1417451 C146.689819,11.6719808 146.779026,11.2354322 146.936563,10.8330483 C147.092203,10.4316134 147.312375,10.0776294 147.598029,9.77394347 C147.881786,9.47025749 148.230076,9.23015576 148.641001,9.05268926 C149.054773,8.87712081 149.534977,8.78886207 150.083509,8.78886207 C151.182473,8.78886207 151.991037,9.08305786 152.512048,9.67144945 C153.030212,10.259841 153.290244,11.0835893 153.290244,12.1417451 L146.670838,12.1417451 L146.670838,12.1417451 Z M150.172717,5.69885722 C149.034844,5.69885722 147.994719,5.88106881 147.053293,6.24359395 C146.110917,6.60706811 145.303302,7.14136563 144.626652,7.84743553 C143.950002,8.55350543 143.425194,9.41141833 143.053179,10.4211742 C142.680215,11.4318791 142.493258,12.5839878 142.493258,13.8775003 C142.493258,16.4673723 143.136693,18.4669546 144.420715,19.8800435 C145.705686,21.2921833 147.621755,21.9982532 150.172717,21.9982532 C152.289029,21.9982532 153.90331,21.5512654 155.011763,20.6591878 C156.118319,19.7671103 156.810154,18.4584135 157.086318,16.7311995 L153.084307,16.7311995 C152.790111,18.1053785 151.829704,18.791519 150.202137,18.791519 C149.025354,18.791519 148.142766,18.4432292 147.553426,17.7466495 C146.965983,17.0510188 146.650909,16.0849177 146.611999,14.8492954 L157.261887,14.8492954 L157.261887,13.201799 C157.261887,10.9061228 156.66875,9.08305786 155.482477,7.72975721 C154.295254,6.37645656 152.524385,5.69885722 150.172717,5.69885722 L150.172717,5.69885722 Z" id="Fill-24" sketch:type="MSShapeGroup"></path>
                <path d="M171.722085,13.863265 C171.30072,13.4618301 170.737952,13.1230304 170.031882,12.847815 C169.324863,12.5735486 168.431837,12.3486312 167.352802,12.1711647 L165.412059,11.8484983 C164.530421,11.6919102 163.935386,11.5002085 163.630751,11.274342 C163.327065,11.0494246 163.175222,10.6916445 163.175222,10.2000529 C163.175222,10.0434648 163.219826,9.87643749 163.309034,9.70086903 C163.397293,9.52340253 163.54439,9.36681445 163.749379,9.23015576 C163.955316,9.09254805 164.239072,8.97961483 164.602546,8.89135609 C164.96602,8.80309735 165.421549,8.75944249 165.970082,8.75944249 C166.950419,8.75944249 167.662183,8.92646978 168.103476,9.25957534 C168.54477,9.59362992 168.85415,10.1127431 169.030668,10.818813 L172.708115,10.3480998 C172.591386,9.70086903 172.398735,9.09254805 172.134908,8.52408586 C171.870131,7.95467464 171.477238,7.464981 170.958124,7.05310689 C170.437113,6.64028376 169.766157,6.31287231 168.94146,6.06707647 C168.118661,5.82222965 167.099414,5.69885722 165.882773,5.69885722 C164.900538,5.69885722 164.003716,5.81179044 163.190407,6.03860591 C162.376148,6.26352334 161.675773,6.58239362 161.08833,6.99331871 C160.49899,7.40614184 160.042512,7.90532567 159.719845,8.49371726 C159.39623,9.08305786 159.234897,9.750218 159.234897,10.4951977 C159.234897,11.9462472 159.690426,13.0300266 160.602433,13.7455867 C161.51444,14.4620958 162.900956,14.9669737 164.765778,15.2602205 L166.882089,15.6142045 C167.627069,15.7309338 168.133845,15.9368708 168.398621,16.2320156 C168.663397,16.5252624 168.795311,16.8697562 168.795311,17.2617009 C168.795311,17.8111827 168.58368,18.2078725 168.163264,18.4536684 C167.740002,18.6985152 167.039626,18.8199896 166.05929,18.8199896 C165.236491,18.8199896 164.530421,18.6833309 163.94108,18.4090645 C163.352689,18.1347981 162.990164,17.5464065 162.852556,16.6429407 L158.910332,16.6429407 C158.969171,17.6830652 159.208324,18.5457232 159.631586,19.2328127 C160.052002,19.9199023 160.591044,20.4684351 161.249663,20.8793602 C161.905435,21.2921833 162.650415,21.581634 163.484602,21.7477123 C164.31879,21.9137905 165.195683,21.9982532 166.118129,21.9982532 C168.412856,21.9982532 170.109702,21.5607556 171.208665,20.6886074 C172.305731,19.8164592 172.854264,18.6548603 172.854264,17.2019127 C172.854264,16.4778115 172.77075,15.8400709 172.603723,15.2905891 C172.437645,14.7411073 172.144398,14.2656489 171.722085,13.863265" id="Fill-25" sketch:type="MSShapeGroup"></path>
                <path d="M187.048736,13.863265 C186.628321,13.4618301 186.064604,13.1230304 185.358534,12.847815 C184.652464,12.5735486 183.758489,12.3486312 182.680403,12.1711647 L180.73966,11.8484983 C179.857073,11.6919102 179.262038,11.5002085 178.958352,11.274342 C178.653717,11.0494246 178.501874,10.6916445 178.501874,10.2000529 C178.501874,10.0434648 178.546478,9.87643749 178.635686,9.70086903 C178.724893,9.52340253 178.871042,9.36681445 179.076979,9.23015576 C179.282916,9.09254805 179.565724,8.97961483 179.929198,8.89135609 C180.292672,8.80309735 180.74915,8.75944249 181.297683,8.75944249 C182.278019,8.75944249 182.989783,8.92646978 183.431077,9.25957534 C183.872371,9.59362992 184.181751,10.1127431 184.357319,10.818813 L188.034767,10.3480998 C187.918037,9.70086903 187.725387,9.09254805 187.462508,8.52408586 C187.196783,7.95467464 186.80389,7.464981 186.284776,7.05310689 C185.764714,6.64028376 185.093758,6.31287231 184.268112,6.06707647 C183.445312,5.82222965 182.426066,5.69885722 181.210373,5.69885722 C180.228139,5.69885722 179.330367,5.81179044 178.517058,6.03860591 C177.703749,6.26352334 177.002425,6.58239362 176.414982,6.99331871 C175.825641,7.40614184 175.370112,7.90532567 175.047446,8.49371726 C174.722882,9.08305786 174.561548,9.750218 174.561548,10.4951977 C174.561548,11.9462472 175.017077,13.0300266 175.929084,13.7455867 C176.841091,14.4620958 178.227608,14.9669737 180.092429,15.2602205 L182.20969,15.6142045 C182.95467,15.7309338 183.460497,15.9368708 183.725273,16.2320156 C183.990998,16.5252624 184.121963,16.8697562 184.121963,17.2617009 C184.121963,17.8111827 183.911281,18.2078725 183.489916,18.4536684 C183.067603,18.6985152 182.367227,18.8199896 181.385942,18.8199896 C180.563143,18.8199896 179.857073,18.6833309 179.267732,18.4090645 C178.68029,18.1347981 178.316815,17.5464065 178.179208,16.6429407 L174.236984,16.6429407 C174.296772,17.6830652 174.535925,18.5457232 174.958238,19.2328127 C175.378654,19.9199023 175.918645,20.4684351 176.576315,20.8793602 C177.232087,21.2921833 177.978016,21.581634 178.811254,21.7477123 C179.645442,21.9137905 180.522335,21.9982532 181.44573,21.9982532 C183.740457,21.9982532 185.436354,21.5607556 186.535317,20.6886074 C187.632383,19.8164592 188.181865,18.6548603 188.181865,17.2019127 C188.181865,16.4778115 188.098351,15.8400709 187.931324,15.2905891 C187.764296,14.7411073 187.47105,14.2656489 187.048736,13.863265" id="Fill-26" sketch:type="MSShapeGroup"></path>
                <path d="M201.18437,16.0849177 C201.007852,16.6922897 200.7687,17.1886265 200.465014,17.570132 C200.15943,17.9525865 199.801649,18.231598 199.389775,18.4090645 C198.977901,18.584633 198.546098,18.6738407 198.096263,18.6738407 C197.684389,18.6738407 197.27726,18.6197467 196.874876,18.5115585 C196.472492,18.4043194 196.075802,18.1737079 195.682908,17.8206729 C195.309944,17.4477086 195.041372,16.961811 194.874344,16.3639292 C194.707317,15.7660475 194.624753,14.9669737 194.624753,13.966708 L194.624753,13.4959948 C194.624753,12.6124584 194.716807,11.8883571 194.904713,11.3189459 C195.089772,10.7504837 195.379222,10.2788214 195.772116,9.90680608 C196.124202,9.61166127 196.486727,9.39718305 196.859692,9.25957534 C197.232656,9.12291665 197.673001,9.05268926 198.185471,9.05268926 C198.635305,9.05268926 199.061415,9.13715193 199.463799,9.3032302 C199.866183,9.47025749 200.214473,9.74452389 200.507719,10.1269784 C200.801915,10.510382 201.032527,11.0048207 201.198605,11.6131417 C201.365632,12.2205136 201.449146,12.9759325 201.449146,13.8775003 C201.449146,14.7411073 201.361836,15.4765968 201.18437,16.0849177 L201.18437,16.0849177 Z M199.360356,5.69885722 C197.320915,5.69885722 195.712328,6.53304465 194.535545,8.20047048 L194.535545,6.16957049 L190.535431,6.16957049 L190.535431,27.2349383 L194.654172,27.2349383 L194.654172,19.9388826 C195.319434,20.7616818 196.031198,21.3111637 196.787566,21.5854301 C197.542036,21.8606455 198.3022,21.9982532 199.067109,21.9982532 C200.105335,21.9982532 201.037272,21.8018063 201.862918,21.4098616 C202.685717,21.0179169 203.386093,20.46369 203.964045,19.7471809 C204.542947,19.0316208 204.984241,18.1737079 205.289825,17.1734422 C205.593511,16.1722275 205.745354,15.0647227 205.745354,13.8490297 C205.745354,11.3189459 205.215801,9.32790468 204.157645,7.87685511 C203.096642,6.42580554 201.499444,5.69885722 199.360356,5.69885722 L199.360356,5.69885722 Z" id="Fill-27" sketch:type="MSShapeGroup"></path>
                <path d="M217.424926,15.4661576 C217.424926,16.0944079 217.306299,16.6192153 217.070943,17.0405796 C216.835586,17.4628929 216.5319,17.8111827 216.158936,18.0854491 C215.491775,18.5760918 214.630066,18.8199896 213.569064,18.8199896 C212.942711,18.8199896 212.452069,18.6738407 212.099983,18.3796449 C211.745999,18.0854491 211.569481,17.6830652 211.569481,17.1734422 C211.569481,16.8393876 211.617881,16.5357016 211.71563,16.2614352 C211.814328,15.9862198 212.005081,15.7461181 212.290735,15.540181 C212.574492,15.334244 212.981621,15.1634206 213.512122,15.0248639 C214.040726,14.8891542 214.737306,14.7999464 215.599015,14.7610367 L217.424926,14.6718289 L217.424926,15.4661576 L217.424926,15.4661576 Z M219.968297,7.34730268 C219.469113,6.81775025 218.807647,6.41062124 217.982949,6.12591563 C217.16015,5.84215904 216.158936,5.69885722 214.982152,5.69885722 C213.059441,5.69885722 211.530571,6.05758629 210.392698,6.77314638 C209.254825,7.48965549 208.547806,8.65220338 208.273539,10.259841 L212.040194,10.612876 C212.275551,9.37630464 213.206538,8.75944249 214.835054,8.75944249 C215.542073,8.75944249 216.153241,8.93501095 216.674253,9.2880459 C217.193366,9.64108085 217.452448,10.2892606 217.452448,11.2297381 L217.452448,11.9955962 L215.482285,12.083855 C214.501949,12.1237137 213.535848,12.2205136 212.584931,12.3771017 C211.632116,12.5346388 210.774204,12.8003641 210.010243,13.1714304 C209.245334,13.5453437 208.627523,14.065406 208.15681,14.7316171 C207.686097,15.3987772 207.45074,16.2614352 207.45074,17.3195911 C207.45074,18.1243589 207.588348,18.8152445 207.862614,19.3941459 C208.136881,19.9730473 208.506049,20.4485057 208.965374,20.82147 C209.426597,21.1934853 209.966589,21.4677517 210.583451,21.6452182 C211.202211,21.8207867 211.853238,21.9090454 212.541276,21.9090454 C213.736091,21.9090454 214.71358,21.6936182 215.467101,21.2627637 C216.221571,20.8309602 216.903915,20.2729372 217.512236,19.5858477 L217.512236,21.5275399 L221.395621,21.5275399 L221.395621,11.8181297 C221.395621,10.8767032 221.281738,10.0292295 221.05777,9.27381062 C220.831904,8.51934076 220.468429,7.87685511 219.968297,7.34730268 L219.968297,7.34730268 Z" id="Fill-28" sketch:type="MSShapeGroup"></path>
                <path d="M224.455257,0.521960278 L228.573998,0.521960278 L228.573998,21.5275399 L224.455257,21.5275399 L224.455257,0.521960278 Z" id="Fill-29" sketch:type="MSShapeGroup"></path>
            </g>
        </g>
    </g>
</svg>
